<svg width="24" height="12" viewBox="0 0 24 12" fill="none" xmlns="http://www.w3.org/2000/svg">
<path d="M9 11H6C5.34339 11 4.69321 10.8707 4.08658 10.6194C3.47995 10.3681 2.92876 9.9998 2.46447 9.5355C1.52678 8.5979 1 7.3261 1 6C1 4.6739 1.52678 3.40215 2.46447 2.46447C3.40215 1.52678 4.67392 1 6 1H9M8 6H16M15 1H18C18.6566 1 19.3068 1.12933 19.9134 1.3806C20.52 1.63188 21.0712 2.00017 21.5355 2.46447C21.9998 2.92876 22.3681 3.47996 22.6194 4.0866C22.8707 4.6932 23 5.3434 23 6C23 6.6566 22.8707 7.3068 22.6194 7.9134C22.3681 8.52 21.9998 9.0712 21.5355 9.5355C21.0712 9.9998 20.52 10.3681 19.9134 10.6194C19.3068 10.8707 18.6566 11 18 11H15V1Z" stroke="#1F4E79" stroke-width="2" stroke-linecap="round" stroke-linejoin="round"/>
</svg>
