<svg width="22" height="22" viewBox="0 0 22 22" fill="none" xmlns="http://www.w3.org/2000/svg">
<path d="M12.3254 9.6758L4.44115 17.56M5.29201 11.8381L1.43021 10.9259C1.00534 10.8256 0.855906 10.2981 1.16369 9.9892L4.23484 6.91804C4.44115 6.71173 4.72105 6.59352 5.01434 6.59129L8.47691 6.56119M12.8383 2.59902C15.4155 4.35651 17.6447 6.58572 19.4022 9.1629M10.162 16.7091L11.0742 20.5709C11.1745 20.9958 11.702 21.1453 12.0109 20.8375L15.082 17.7663C15.2884 17.56 15.4066 17.2801 15.4088 16.9868L15.4389 13.5242M20.0635 7.35072L20.9645 3.01498C21.2099 1.83514 20.1661 0.791352 18.9862 1.03668L14.6505 1.93773C13.3736 2.20314 12.2027 2.83543 11.2816 3.75767L7.72418 7.31392C6.36703 8.67107 5.48382 10.4308 5.20503 12.3299L5.19277 12.4113C5.01657 13.6235 5.42249 14.8468 6.28785 15.7133C7.15322 16.5787 8.37766 16.9846 9.58986 16.8073L9.67126 16.795C11.5704 16.5173 13.3301 15.633 14.6873 14.2759L18.2435 10.7196C19.1658 9.7985 19.7981 8.62758 20.0635 7.35072Z" stroke="#181D27" stroke-width="2" stroke-linecap="round" stroke-linejoin="round"/>
</svg>
