<svg width="20" height="23" viewBox="0 0 20 23" fill="none" xmlns="http://www.w3.org/2000/svg">
<path d="M5.50017 3.20795L10.0002 5.80795L14.5002 3.20795M5.50017 18.788V13.5979L1.00017 10.9979M19.0002 10.9979L14.5002 13.5979V18.788M1.27017 5.95795L10.0002 11.0079L18.7302 5.95795M10.0002 21.078V10.9979M19.0002 14.9979V6.99795C18.9998 6.64723 18.9073 6.30276 18.7317 5.99911C18.5562 5.69547 18.3039 5.44331 18.0002 5.26795L11.0002 1.26795C10.6962 1.09242 10.3513 1 10.0002 1C9.64907 1 9.30417 1.09242 9.00017 1.26795L2.00017 5.26795C1.69643 5.44331 1.44415 5.69547 1.26863 5.99911C1.09311 6.30276 1.00053 6.64723 1.00017 6.99795V14.9979C1.00053 15.3486 1.09311 15.6931 1.26863 15.9967C1.44415 16.3004 1.69643 16.5526 2.00017 16.728L9.00017 20.728C9.30417 20.9035 9.64907 20.996 10.0002 20.996C10.3513 20.996 10.6962 20.9035 11.0002 20.728L18.0002 16.728C18.3039 16.5526 18.5562 16.3004 18.7317 15.9967C18.9073 15.6931 18.9998 15.3486 19.0002 14.9979Z" stroke="#181D27" stroke-width="2" stroke-linecap="round" stroke-linejoin="round"/>
</svg>
