<svg xmlns="http://www.w3.org/2000/svg" viewBox="0 0 362.08 100.47"><defs><style>.cls-1{fill:#fff;}.cls-2{fill:#31a9ba;}</style></defs><title>JLINC Logo H White</title><g id="Layer_2" data-name="Layer 2"><g id="Layer_1-2" data-name="Layer 1"><path class="cls-1" d="M157.32,29.36h8.35V57.2q0,13.9-13.92,13.91H137.84q-14.22,0-14-13.91l0-1.4h8.35v.25q0,6.72,6.68,6.71h11.66q6.7,0,6.71-6.73Z"/><path class="cls-1" d="M223.12,62.76v8.35H181.37V29.36h8.35v33.4Z"/><path class="cls-1" d="M247.18,71.11h-8.35V29.36h8.35Z"/><path class="cls-1" d="M271.23,42V71.11h-8.35V29.36h8.51l24.89,29.09V29.36h8.35V71.11h-8.49Z"/><path class="cls-1" d="M362.08,62.76v8.35H334.25q-13.92,0-13.92-13.91V43.28q0-13.92,13.92-13.92h27.83v8.35H335.39q-6.7,0-6.71,6.68V56.05q0,6.72,6.74,6.71Z"/><path class="cls-2" d="M8.52,41.22l9,9L36.46,69.16l7.76-7.76L25.3,42.48l-9.42-9.42q-4.5-4.52-5.14-9.26c-.48-3.11,1-6.36,4.35-9.73Q19.22,9.95,23.64,10t9.26,4.83l4,4,7.2-7.21L38.52,6a20.93,20.93,0,0,0-7.91-4.9A17.1,17.1,0,0,0,20,.61Q14,2,8.05,8a28.56,28.56,0,0,0-6.33,9.5,18.2,18.2,0,0,0-.79,11.4Q2.34,35,8.52,41.22Z"/><path class="cls-2" d="M61.4,56.25,42.48,75.17l-9.42,9.42q-4.52,4.51-9.26,5.14t-9.73-4.35Q9.95,81.27,10,76.83t4.83-9.26l4-3.95-7.21-7.21L6,62a21,21,0,0,0-4.9,7.92A17.09,17.09,0,0,0,.61,80.48q1.43,6,7.36,12a28.87,28.87,0,0,0,9.5,6.33,18.2,18.2,0,0,0,11.4.79Q35,98.13,41.22,92l9-9L69.16,64Z"/><path class="cls-2" d="M92,59.26l-9-9L64,31.31l-7.76,7.76L75.17,58l9.42,9.42q4.51,4.52,5.14,9.26t-4.35,9.74c-2.74,2.74-5.59,4.12-8.55,4.11s-6-1.55-9.26-4.83l-3.95-4-7.21,7.2L62,94.48a21.11,21.11,0,0,0,7.92,4.91,17.06,17.06,0,0,0,10.6.47q6-1.42,12-7.36A28.87,28.87,0,0,0,98.76,83a18.16,18.16,0,0,0,.79-11.39Q98.13,65.43,92,59.26Z"/><path class="cls-2" d="M39.07,44.22,58,25.3l9.42-9.42q4.52-4.5,9.26-5.14c3.12-.48,6.36,1,9.74,4.35,2.74,2.75,4.11,5.59,4.11,8.55s-1.55,6-4.83,9.26l-4,4,7.2,7.2,5.54-5.54a21.07,21.07,0,0,0,4.91-7.91A17.17,17.17,0,0,0,99.86,20Q98.44,14,92.5,8.05A28.56,28.56,0,0,0,83,1.72,18.19,18.19,0,0,0,71.6.93Q65.44,2.34,59.26,8.52l-9,9L31.31,36.46Z"/></g></g></svg>