<?xml version="1.0" encoding="UTF-8"?>
<svg id="Layer_1" data-name="Layer 1" xmlns="http://www.w3.org/2000/svg" viewBox="0 0 362.08 100.47">
  <defs>
    <style>
      .cls-1 {
        fill: #31a9ba;
      }
    </style>
  </defs>
  <g id="Layer_2" data-name="Layer 2">
    <g id="Layer_1-2" data-name="Layer 1-2">
      <path d="M157.32,29.36h8.35v27.84c0,9.27-4.64,13.9-13.92,13.91h-13.91c-9.48,0-14.15-4.64-14-13.91v-1.4h8.35v.25c0,4.48,2.23,6.72,6.68,6.71h11.66c4.47,0,6.7-2.24,6.71-6.73l.08-26.67Z"/>
      <path d="M223.12,62.76v8.35h-41.75V29.36h8.35v33.4h33.4Z"/>
      <path d="M247.18,71.11h-8.35V29.36h8.35v41.75Z"/>
      <path d="M271.23,42v29.11h-8.35V29.36h8.51l24.89,29.09v-29.09h8.35v41.75h-8.49l-24.91-29.11Z"/>
      <path d="M362.08,62.76v8.35h-27.83c-9.28,0-13.92-4.64-13.92-13.91v-13.92c0-9.28,4.64-13.92,13.92-13.92h27.83v8.35h-26.69c-4.47,0-6.7,2.23-6.71,6.68v11.66c0,4.48,2.25,6.72,6.74,6.71h26.66Z"/>
      <path class="cls-1" d="M8.52,41.22l9,9,18.94,18.94,7.76-7.76-18.92-18.92-9.42-9.42c-3-3.01-4.71-6.1-5.14-9.26-.48-3.11,1-6.36,4.35-9.73,2.75-2.75,5.6-4.1,8.55-4.07,2.95.03,6.03,1.64,9.26,4.83l4,4,7.2-7.21-5.58-5.62c-2.24-2.21-4.94-3.88-7.91-4.9-3.39-1.29-7.11-1.46-10.61-.49-4,.93-7.98,3.39-11.95,7.39-2.73,2.71-4.88,5.94-6.33,9.5C.24,21.12-.04,25.11.93,28.9c.94,4.07,3.47,8.17,7.59,12.32Z"/>
      <path class="cls-1" d="M61.4,56.25l-18.92,18.92-9.42,9.42c-3.01,3.01-6.1,4.72-9.26,5.14s-6.4-1.03-9.73-4.35c-2.75-2.74-4.1-5.59-4.07-8.55s1.64-6.05,4.83-9.26l4-3.95-7.21-7.21-5.62,5.59c-2.21,2.24-3.88,4.95-4.9,7.92-1.28,3.38-1.45,7.08-.49,10.56.95,4,3.41,8,7.36,12,2.71,2.72,5.94,4.87,9.5,6.33,3.62,1.48,7.61,1.76,11.4.79,4.09-.98,8.2-3.51,12.35-7.6l9-9,18.94-19-7.76-7.75Z"/>
      <path class="cls-1" d="M92,59.26l-9-9-19-18.95-7.76,7.76,18.93,18.93,9.42,9.42c3.01,3.01,4.72,6.1,5.14,9.26s-1.03,6.41-4.35,9.74c-2.74,2.74-5.59,4.12-8.55,4.11s-6-1.55-9.26-4.83l-3.95-4-7.21,7.2,5.59,5.58c2.24,2.21,4.95,3.88,7.92,4.91,3.39,1.28,7.11,1.44,10.6.47,4-.95,8-3.4,12-7.36,2.69-2.72,4.81-5.95,6.24-9.5,1.48-3.61,1.76-7.61.79-11.39-.95-4.12-3.46-8.24-7.55-12.35Z"/>
      <path class="cls-1" d="M39.07,44.22l18.93-18.92,9.42-9.42c3.01-3,6.1-4.71,9.26-5.14,3.12-.48,6.36,1,9.74,4.35,2.74,2.75,4.11,5.59,4.11,8.55s-1.55,6-4.83,9.26l-4,4,7.2,7.2,5.54-5.54c2.21-2.24,3.88-4.94,4.91-7.91,1.3-3.41,1.47-7.14.51-10.65-.95-4-3.4-7.98-7.36-11.95-2.71-2.73-5.94-4.88-9.5-6.33-3.62-1.48-7.61-1.76-11.4-.79-4.11.94-8.22,3.47-12.34,7.59l-9,9-18.95,18.94,7.76,7.76Z"/>
    </g>
  </g>
</svg>