<?xml version="1.0" encoding="UTF-8"?>
<svg id="Layer_2" xmlns="http://www.w3.org/2000/svg" xmlns:xlink="http://www.w3.org/1999/xlink" viewBox="0 0 701.73 130.69">
  <defs>
    <style>
      .cls-1 {
        fill: url(#linear-gradient-2);
      }

      .cls-2 {
        fill: gray;
      }

      .cls-2, .cls-3 {
        fill-rule: evenodd;
      }

      .cls-4 {
        fill: none;
      }

      .cls-5 {
        fill: url(#linear-gradient-4);
      }

      .cls-6 {
        fill: url(#linear-gradient-3);
      }

      .cls-7 {
        clip-path: url(#clippath-1);
      }

      .cls-8 {
        clip-path: url(#clippath-3);
      }

      .cls-9 {
        clip-path: url(#clippath-2);
      }

      .cls-3 {
        fill: #006ba3;
      }

      .cls-10 {
        fill: url(#linear-gradient);
      }

      .cls-11 {
        clip-path: url(#clippath);
      }
    </style>
    <clipPath id="clippath">
      <path class="cls-4" d="M379.57,101.57c0,.94.75,1.79,1.79,1.79h34.41c1.03,0,1.79-.85,1.79-1.79v-7.71c0-.94-.75-1.79-1.79-1.79h-23.97v-52.74c0-.94-.85-1.79-1.79-1.79h-8.65c-1.04,0-1.79.85-1.79,1.79v62.24ZM328.8,80.88l9.21-20.68h.28l9.4,20.68h-18.9.01ZM308.68,103.35h8.18c1.5,0,2.35-.94,2.73-1.88l4.61-10.15h28.11l4.61,10.15c.66,1.32,1.32,1.88,2.73,1.88h8.18c1.41,0,2.16-1.22,1.6-2.44l-28.96-63.27c-.28-.56-.66-1.03-1.6-1.03h-.94c-.85,0-1.32.47-1.6,1.03l-29.24,63.27c-.56,1.22.19,2.44,1.6,2.44h-.01ZM258.86,101.57c0,.94.75,1.79,1.79,1.79h38.26c1.03,0,1.79-.85,1.79-1.79v-7.71c0-.94-.75-1.79-1.79-1.79h-27.83v-16.45h23.22c.94,0,1.79-.75,1.79-1.79v-7.8c0-.94-.85-1.79-1.79-1.79h-23.22v-15.42h27.83c1.03,0,1.79-.85,1.79-1.79v-7.71c0-.94-.75-1.79-1.79-1.79h-38.26c-1.03,0-1.79.85-1.79,1.79v62.24h0ZM218.71,91.79l26.79-49.73c.85-1.5.85-2.16.85-2.73,0-.94-.85-1.79-1.79-1.79h-39.3c-.94,0-1.79.85-1.79,1.79v7.8c0,.94.85,1.79,1.79,1.79h23.5v.38l-27.36,49.36c-.66,1.22-.66,1.88-.66,2.91,0,.94.85,1.79,1.79,1.79h40.14c1.03,0,1.79-.85,1.79-1.79v-7.8c0-.94-.75-1.79-1.79-1.79h-23.97v-.19h.01Z"/>
    </clipPath>
    <linearGradient id="linear-gradient" x1="-212.87" y1="483" x2="-212.51" y2="483" gradientTransform="translate(-92339.21 65881.61) rotate(69.62) scale(138.36 -227.26)" gradientUnits="userSpaceOnUse">
      <stop offset="0" stop-color="#0084c2"/>
      <stop offset=".28" stop-color="#009de0"/>
      <stop offset="1" stop-color="#00b7ff"/>
    </linearGradient>
    <clipPath id="clippath-1">
      <path class="cls-4" d="M671.64,101.57c0,.94.85,1.79,1.79,1.79h11.28c.94,0,1.79-.85,1.79-1.79v-50.2h13.44c1.03,0,1.79-.85,1.79-1.79v-10.25c0-.94-.75-1.79-1.79-1.79h-41.74c-1.03,0-1.79.85-1.79,1.79v10.25c0,.94.75,1.79,1.79,1.79h13.44v50.2ZM617.77,80.79l7.05-15.51h.09l7.15,15.51h-14.29ZM595.01,103.35h10.34c1.88,0,2.91-1.13,3.38-2.26l3.38-7.52h25.57l3.38,7.43c.85,1.79,1.6,2.35,3.29,2.35h10.44c1.41,0,2.16-1.22,1.6-2.44l-29.43-63.27c-.28-.56-.94-1.03-1.6-1.03h-.94c-.66,0-1.32.47-1.6,1.03l-29.43,63.27c-.56,1.22.19,2.44,1.6,2.44h.02ZM551.49,65.65v-14.67h13.92c3.85,0,7.14,2.73,7.14,7.14s-3.29,7.52-7.14,7.52h-13.92ZM536.73,101.57c0,.94.75,1.79,1.79,1.79h11.19c.94,0,1.79-.85,1.79-1.79v-23.97h6.49l12.5,24.91c.19.38.75.85,1.5.85h12.5c1.6,0,2.26-1.5,1.6-2.73l-12.88-23.88c8.74-3.29,13.91-10.25,13.91-18.9,0-11.19-8.56-20.31-20.5-20.31h-28.11c-1.03,0-1.79.85-1.79,1.79v62.24h.01ZM494.89,101.57c0,.94.85,1.79,1.79,1.79h11.28c.94,0,1.79-.85,1.79-1.79v-50.2h13.44c1.03,0,1.79-.85,1.79-1.79v-10.25c0-.94-.75-1.79-1.79-1.79h-41.74c-1.03,0-1.79.85-1.79,1.79v10.25c0,.94.75,1.79,1.79,1.79h13.44v50.2ZM449.48,104.29c13.82,0,22.19-9.78,22.19-19.46,0-12.79-10.72-17.39-18.99-21.44-6.58-3.2-10.25-5.64-10.25-8.74,0-2.73,1.79-5.17,5.74-5.17,4.98,0,10.53,3.57,12.69,5.08,1.88,1.13,3.48.38,4.14-.66l4.79-7.24c.38-.66.56-2.35-.56-3.01-2.82-2.07-10.34-7.05-20.12-7.05-14.48,0-21.72,9.4-21.72,18.71,0,11.28,9.12,16.36,18.24,20.78,6.2,3.01,9.68,5.55,9.68,9.5,0,3.29-2.73,5.64-6.49,5.64-5.92,0-10.72-3.38-13.35-5.17-.94-.66-2.44-.66-3.2.56l-4.32,7.62c-.66,1.22-.38,2.07.38,2.82,2.16,2.16,8.93,7.24,21.15,7.24h0Z"/>
    </clipPath>
    <linearGradient id="linear-gradient-2" x1="-217" y1="485.73" x2="-216.42" y2="485.73" gradientTransform="translate(-81577.12 -86962.91) rotate(-180) scale(379.27 -179.18)" gradientUnits="userSpaceOnUse">
      <stop offset="0" stop-color="#e6e6e6"/>
      <stop offset=".15" stop-color="#c8c9ca"/>
      <stop offset="1" stop-color="#a9abae"/>
    </linearGradient>
    <clipPath id="clippath-2">
      <path class="cls-4" d="M151.46,77.64c14.65.27,15.96,2.99,8.73,12.57-8.95,11.29-17.89,22.58-26.84,33.87-8.41,6.94-23.22,6.09-30.25-1.92-20.7-21.12-11.15-89.54-31.1-115.13-2.66-2.78-5.86-5.38-11.93-7.03,31.53.04,63.05.07,94.58.11,15.71-.14,15.64,3.83,8.73,11.5-14.17,17.68-28.33,35.36-42.5,53.04-9.15,9.43-7.57,13.9,5.43,13.1,8.38-.04,16.76-.07,25.14-.11h.01Z"/>
    </clipPath>
    <linearGradient id="linear-gradient-3" x1="-216.17" y1="485.25" x2="-215.75" y2="485.25" gradientTransform="translate(-45269.82 -107907.21) rotate(-180) scale(210.27 -222.51)" gradientUnits="userSpaceOnUse">
      <stop offset="0" stop-color="#e6e6e6"/>
      <stop offset=".32" stop-color="#c8c9ca"/>
      <stop offset="1" stop-color="#a9abae"/>
    </linearGradient>
    <clipPath id="clippath-3">
      <path class="cls-4" d="M16.36,53.05c-14.65-.27-15.96-2.99-8.73-12.57,8.95-11.29,17.89-22.58,26.84-33.87,8.41-6.94,23.22-6.09,30.25,1.92,20.7,21.12,11.15,89.54,31.1,115.13,2.66,2.78,5.86,5.38,11.93,7.03-31.52-.04-63.05-.07-94.58-.11-15.71.14-15.64-3.83-8.73-11.5,14.17-17.68,28.33-35.36,42.5-53.04,9.15-9.43,7.57-13.9-5.43-13.1-8.38.04-16.76.07-25.14.11h-.01Z"/>
    </clipPath>
    <linearGradient id="linear-gradient-4" x1="-219.18" y1="482.67" x2="-218.82" y2="482.67" gradientTransform="translate(88902.73 -46147.27) rotate(-90) scale(211.15 -184.08)" xlink:href="#linear-gradient"/>
  </defs>
  <g id="Layer_1-2" data-name="Layer_1">
    <g class="cls-11">
      <path class="cls-10" d="M391.26-34.19L178.97,44.68l48.08,129.42,212.29-78.87-48.08-129.42ZM359.69,55.02c-6.45,0-6.43-10,0-10s6.43,10,0,10Z"/>
    </g>
    <g class="cls-7">
      <rect class="cls-1" x="423.25" y=".81" width="282.51" height="139.31" transform="translate(1.95 155.09) rotate(-15.67)"/>
    </g>
    <g class="cls-9">
      <rect class="cls-6" x="31.77" y="-20.02" width="166.87" height="171.01" transform="translate(-16.25 82.27) rotate(-36.89)"/>
    </g>
    <g class="cls-8">
      <rect class="cls-5" x="-21.9" y="-15.44" width="149.01" height="161.25" transform="translate(-19.41 22.4) rotate(-20.38)"/>
    </g>
    <path class="cls-3" d="M34.47,6.61c59.34-22.39,29.62,116.01,66.11,124.07h7.17c-6.07-1.64-9.27-4.24-11.93-7.02-19.95-25.6-10.4-94.01-31.1-115.13C57.69.52,42.89-.32,34.47,6.61"/>
    <path class="cls-2" d="M127,125.92C76.18,136.15,102.35,7.77,67.25.01h-7.17c6.07,1.64,9.27,4.24,11.93,7.02,19.95,25.6,10.4,94.01,31.1,115.13,7.03,8.01,21.83,8.86,30.25,1.92l26.84-33.87c7.23-9.57,5.91-12.3-8.73-12.57l-12.57.05c12.46,1.72,2.72,42.07-11.89,48.23"/>
  </g>
</svg>