<?xml version="1.0" encoding="UTF-8"?>
<svg id="Layer_1" data-name="Layer 1" xmlns="http://www.w3.org/2000/svg" xmlns:xlink="http://www.w3.org/1999/xlink" viewBox="0 0 450 150">
  <defs>
    <style>
      .cls-1 {
        fill: none;
      }

      .cls-2 {
        clip-path: url(#clippath-1);
      }

      .cls-3 {
        fill: #f1f4f8;
      }

      .cls-4 {
        clip-path: url(#clippath-3);
      }

      .cls-5 {
        clip-path: url(#clippath-2);
      }

      .cls-6 {
        clip-path: url(#clippath);
      }
    </style>
    <clipPath id="clippath">
      <rect class="cls-1" y="22.51" width="90.43" height="90.43"/>
    </clipPath>
    <clipPath id="clippath-1">
      <rect class="cls-1" y="22.51" width="90.43" height="90.43"/>
    </clipPath>
    <clipPath id="clippath-2">
      <rect class="cls-1" x=".41" y="22.92" width="89.62" height="89.62"/>
    </clipPath>
    <clipPath id="clippath-3">
      <rect class="cls-1" x=".41" y="22.92" width="89.62" height="89.62"/>
    </clipPath>
  </defs>
  <g>
    <path class="cls-3" d="M103.36,95.26l-10.64-43.16h9.99l8.33,36.65-2.07-1.36h5.38l-2.31,1.36,6.44-35.06h8.04l-8.45,41.56h-14.72ZM129.07,95.26l-9.1-41.56h8.45l7.45,35.06-2.25-1.36h5.14l-1.95,1.36,7.27-36.65h9.46l-9.46,43.16h-15.02Z"/>
    <path class="cls-3" d="M171.93,96.39c-2.84,0-5.36-.44-7.57-1.33-2.21-.89-4.07-2.1-5.59-3.64-1.52-1.54-2.67-3.3-3.46-5.29-.79-1.99-1.18-4.09-1.18-6.3v-1.36c0-2.25.4-4.38,1.21-6.41.81-2.03,1.99-3.81,3.55-5.35,1.56-1.54,3.44-2.75,5.65-3.64,2.21-.89,4.67-1.33,7.39-1.33s5.29.44,7.48,1.33,4.05,2.1,5.59,3.64,2.72,3.32,3.55,5.35c.83,2.03,1.24,4.17,1.24,6.41v1.36c0,2.21-.39,4.31-1.18,6.3-.79,1.99-1.94,3.75-3.46,5.29-1.52,1.54-3.38,2.75-5.59,3.64-2.21.89-4.75,1.33-7.63,1.33ZM171.93,88.41c1.85,0,3.39-.39,4.61-1.18,1.22-.79,2.16-1.89,2.81-3.31s.98-2.99.98-4.73c0-1.85-.34-3.48-1-4.88-.67-1.4-1.63-2.51-2.87-3.34-1.24-.83-2.75-1.24-4.52-1.24s-3.23.41-4.49,1.24c-1.26.83-2.22,1.94-2.87,3.34-.65,1.4-.98,3.03-.98,4.88,0,1.73.32,3.31.95,4.73.63,1.42,1.58,2.52,2.84,3.31,1.26.79,2.78,1.18,4.55,1.18Z"/>
    <path class="cls-3" d="M194.93,95.26v-32.4h7.51v13.89h-.18c0-4.57.98-8.1,2.93-10.58,1.95-2.48,4.78-3.72,8.48-3.72h1.24v8.16h-2.36c-2.6,0-4.61.7-6.03,2.1-1.42,1.4-2.13,3.42-2.13,6.06v16.49h-9.46Z"/>
    <path class="cls-3" d="M218.34,95.26v-43.16h9.46v43.16h-9.46ZM241.16,95.26l-10.23-15.13h-4.55l13.18-17.26h9.93l-12.42,16.08.12-4.61,14.6,20.93h-10.64Z"/>
    <path class="cls-3" d="M255.17,95.56v-43.81h9.46v43.81h-9.46ZM263.44,75.64v-5.79h8.51c1.85,0,3.19-.47,4.02-1.42.83-.95,1.24-2.21,1.24-3.78,0-1.66-.41-2.96-1.24-3.9-.83-.95-2.17-1.42-4.02-1.42h-8.51v-7.57h7.92c4.97,0,8.78,1.04,11.44,3.13,2.66,2.09,3.99,5.06,3.99,8.93v.89c0,2.68-.68,4.83-2.04,6.44-1.36,1.62-3.19,2.77-5.5,3.46-2.31.69-4.94,1.03-7.89,1.03h-7.92ZM263.44,95.56v-7.57h10.11c1.81,0,3.17-.47,4.08-1.42.91-.95,1.36-2.29,1.36-4.02s-.45-3.06-1.36-3.99c-.91-.93-2.27-1.39-4.08-1.39h-10.11v-5.85h9.64c2.99,0,5.66.36,7.98,1.09,2.32.73,4.16,1.9,5.5,3.52,1.34,1.62,2.01,3.8,2.01,6.56v.83c0,2.56-.59,4.76-1.77,6.59-1.18,1.83-2.92,3.23-5.2,4.2-2.29.97-5.12,1.45-8.51,1.45h-9.64Z"/>
    <path class="cls-3" d="M308.61,96.39c-2.76,0-5.19-.47-7.3-1.42-2.11-.95-3.86-2.22-5.26-3.81-1.4-1.6-2.46-3.39-3.19-5.38-.73-1.99-1.09-4.03-1.09-6.12v-1.18c0-2.17.36-4.25,1.09-6.24.73-1.99,1.78-3.77,3.16-5.35,1.38-1.58,3.1-2.83,5.17-3.75s4.42-1.39,7.06-1.39c3.47,0,6.39.78,8.78,2.33,2.38,1.56,4.21,3.59,5.47,6.09,1.26,2.5,1.89,5.23,1.89,8.19v3.19h-28.67v-5.38h22.94l-3.07,2.48c0-1.93-.28-3.59-.83-4.97-.55-1.38-1.37-2.43-2.45-3.16-1.08-.73-2.43-1.09-4.05-1.09s-3.05.37-4.2,1.12c-1.14.75-2.01,1.84-2.6,3.28-.59,1.44-.89,3.2-.89,5.29,0,1.93.28,3.62.83,5.05.55,1.44,1.42,2.55,2.6,3.34,1.18.79,2.72,1.18,4.61,1.18,1.73,0,3.15-.33,4.26-1s1.85-1.5,2.25-2.48h8.69c-.47,2.17-1.4,4.1-2.78,5.79-1.38,1.7-3.11,3.01-5.2,3.96-2.09.95-4.49,1.42-7.21,1.42Z"/>
    <path class="cls-3" d="M329.18,95.26v-32.4h7.51v13.89h-.53c0-3.31.42-6.07,1.27-8.28.85-2.21,2.14-3.86,3.87-4.97s3.84-1.66,6.33-1.66h.41c3.78,0,6.67,1.23,8.66,3.69,1.99,2.46,2.99,6.2,2.99,11.2v18.5h-9.46v-19.04c0-1.73-.51-3.15-1.54-4.26-1.02-1.1-2.4-1.65-4.14-1.65s-3.2.56-4.29,1.68c-1.08,1.12-1.63,2.59-1.63,4.4v18.86h-9.46Z"/>
    <path class="cls-3" d="M380.79,96.39c-2.8,0-5.23-.46-7.3-1.39-2.07-.93-3.79-2.18-5.17-3.75-1.38-1.58-2.4-3.36-3.07-5.35-.67-1.99-1.01-4.05-1.01-6.18v-1.12c0-2.21.36-4.32,1.06-6.35.71-2.03,1.75-3.83,3.13-5.41,1.38-1.58,3.1-2.82,5.17-3.72,2.07-.91,4.44-1.36,7.12-1.36,2.92,0,5.5.56,7.74,1.68s4.04,2.69,5.38,4.7c1.34,2.01,2.09,4.32,2.25,6.92h-9.28c-.16-1.46-.74-2.69-1.74-3.69s-2.45-1.51-4.35-1.51c-1.58,0-2.89.39-3.93,1.18-1.04.79-1.82,1.87-2.34,3.25-.51,1.38-.77,3.01-.77,4.91,0,1.73.24,3.3.71,4.7.47,1.4,1.23,2.48,2.28,3.25,1.04.77,2.41,1.15,4.11,1.15,1.26,0,2.33-.23,3.22-.68.89-.45,1.6-1.08,2.13-1.89.53-.81.86-1.74.98-2.81h9.22c-.12,2.68-.87,5.03-2.25,7.06-1.38,2.03-3.21,3.61-5.5,4.73-2.29,1.12-4.89,1.68-7.8,1.68Z"/>
    <path class="cls-3" d="M400.89,95.26v-43.16h9.46v24.89h-1.42c0-3.27.41-6.03,1.24-8.28.83-2.25,2.05-3.95,3.67-5.11,1.61-1.16,3.64-1.74,6.09-1.74h.41c3.59,0,6.33,1.27,8.22,3.81s2.84,6.26,2.84,11.14v18.44h-9.46v-19.04c0-1.77-.52-3.2-1.57-4.29-1.04-1.08-2.42-1.63-4.11-1.63s-3.2.57-4.29,1.71c-1.08,1.14-1.63,2.66-1.63,4.55v18.68h-9.46Z"/>
  </g>
  <g class="cls-6">
    <g class="cls-2">
      <g class="cls-5">
        <g class="cls-4">
          <path class="cls-3" d="M53.56,96.55c-.47.49-.83,3.99-1.19,4.98-.48,1.33-1.42,2.35-2.76,2.84-1.85.68-7.37.66-9.14-.18-2.7-1.29-2.55-4.23-3.18-6.71-.36-1.44-.65-.93-1.61-1.62-1.66-1.19-.41-3.72,1.5-3.16,3.72,1.07,3.22,4.35,4.14,7.24.34,1.08.72,1.23,1.84,1.31,1.05.08,2.1.04,3.15,0,1.3-.06,2.47.25,2.91-1.29.63-2.21.23-4.52,2.21-6.19.93-.78,1.84-.87,2.89-1.31,2.42-1.02,4.27-2.52,6.94-.99,1.01.58,1.93,1.57,2.95,2.13.89.49,1.2.4,1.97-.22,1.04-.84,2.48-2.29,3.33-3.32.44-.53,1-1.07.76-1.81-.29-.93-1.74-2.44-2.28-3.41-.56-1-.82-1.88-.72-3.05.09-1.1,1.72-4.85,2.26-6.05,1.36-3.03,4.1-2.56,6.75-3.4.73-.23,1.01-.32,1.13-1.15.19-1.3.18-3.48.1-4.8-.07-1.09-.07-1.69-1.19-2.05-2.63-.84-5.34-.24-6.76-3.3-.59-1.28-1.83-4.18-2.14-5.47-.82-3.41,1.72-4.41,2.79-6.89.42-.98-.18-1.51-.79-2.19-.72-.81-2.61-2.85-3.43-3.4-.76-.51-1.15-.28-1.84.14-1.32.8-2.61,2.26-4.13,2.61-2.03.45-3.57-.64-5.35-1.4-1.63-.7-3.03-.87-4.09-2.47-1.07-1.6-.87-3.72-1.44-5.47-.17-.51-.48-.8-1-.92-1.14-.28-4.68-.28-5.8.02-.71.19-.83.51-1.02,1.17-.71,2.53-.26,5.28-3.01,6.7-1.1.57-2.55,1.03-3.72,1.53-.71.3-1.24.69-2.04.85-3.06.63-4.15-1.52-6.42-2.78-.77-.43-1.16-.3-1.81.23-.93.75-3.1,2.9-3.76,3.85-.53.77-.51,1-.07,1.82,1.09,2.04,2.99,3.19,2.77,5.87-.09,1.12-1.71,4.96-2.25,6.15-1.31,2.86-3.69,2.59-6.3,3.24-.87.21-1.37.24-1.57,1.23-.28,1.35-.22,3.73-.1,5.13.1,1.17.23,1.47,1.35,1.8,2.38.7,5.18.44,6.5,3.04.58,2.39,2.62,5.03,2.37,7.51-.19,1.91-2.12,3.4-2.85,5.03-.43.97-.14,1.23.49,1.97.93,1.09,2.3,2.51,3.41,3.42,1.29,1.05,1.76.41,2.84-.48,1.24-1.02,2.25-2.31,3.37-3.46,3.9-4,7.76-8.04,11.65-12.07,1.57-1.23,2.46-.59,4.15-.48,4.72.3,8.06-3.41,8.36-7.92,0-.1.08-.57-.13-.48-1.09,1.02-2.17,2.5-3.33,3.41-4.01,3.13-11.01-3.67-7.43-8.22.81-1.03,2.18-1.96,2.97-2.98.07-.09.17-.11.13-.26-2.94-.04-5.54,1.45-6.98,4-.95,1.69-1.26,3.39-1.06,5.31.16,1.49.63,2.26-.41,3.64l-7.08,7.44c-2.38,2-4.1-2.04-4.87-3.79-7.69-17.5,9.97-36.24,27.76-28.46,11.91,5.21,16.08,20.45,9.38,31.41l1.83,6.74c.11,1.13-.55,1.94-1.64,2.13l-7.5-1.82c-4.09,2.25-8.7,3.34-13.37,2.51-.62-.11-1.34-.19-1.78-.67-.88-.96-.41-2.73.9-2.96.85-.15,2.27.28,3.21.33,2.79.15,5.62-.47,8.13-1.68.88-.42,1.65-1.09,2.65-1.2l5.2,1.22c-.33-1.32-.83-2.66-1.13-3.99-.41-1.81.26-2.01,1-3.45,4.49-8.71,2.03-19.16-6.44-24.28-10.61-6.41-23.94.29-26.13,12.19-.65,3.53-.22,8.29,1.65,11.42.05.08.08.18.2.15,1.19-1.22,2.43-2.42,3.59-3.67.23-.25,1.24-1.3,1.31-1.49.12-.34-.19-1.65-.21-2.14-.44-8.14,6.8-14.36,14.79-12.25,1.61.42,3.16,1.07,2.47,3.08-1.81,2.13-3.9,4.04-5.8,6.11-.21.29.01.64.16.9.29.5,1.62,1.94,2.23,1.76.15-.04,1.89-1.85,2.17-2.13.97-.99,2.39-2.82,3.42-3.58.67-.5,1.57-.6,2.26-.09,1.34.99,1.67,5.01,1.58,6.56-.37,6.25-5.69,11.36-12.03,10.98-.61-.04-1.84-.43-2.32-.13-4.65,4.65-9.01,9.61-13.65,14.26-3.57,3.58-5.64,3.94-9.41.31-1.41-1.36-3.98-3.79-4.22-5.76-.35-2.94,1.74-4.14,2.85-6.38.49-.99-.35-2.06-.72-3-.32-.81-.67-2.1-1.05-2.8-.24-.45-.55-.51-1.02-.64-2.3-.63-5.23-.47-6.53-2.92-.94-1.76-.9-5.51-.72-7.51.25-2.72,1.11-4.41,3.86-5.15.86-.23,3.78-.57,4.24-1.05l2.11-5.02c.06-.28.03-.52-.05-.79-.27-.89-1.87-2.56-2.4-3.55-.81-1.52-.84-3.24,0-4.76.7-1.26,4.62-5.29,5.88-5.94,3.29-1.69,5,.58,7.47,2.17.27.17.48.38.81.42.66.07,1.71-.62,2.35-.89.8-.34,2.26-.79,2.92-1.19.29-.18.38-.33.49-.65.89-2.64.19-5.9,3.45-7.23,1.75-.71,6.73-.7,8.58-.22,3.72.96,3.18,4.45,4.03,7.26.34,1.12,1.25,1.07,2.2,1.48,1.05.45,2.1.92,3.13,1.42l.79-.05c2.52-1.62,4.52-4.14,7.8-2.59,1.43.67,4.08,3.53,5.17,4.81,1.62,1.9,1.99,3.93.74,6.16-.45.79-2.37,3.07-2.39,3.73-.02.36,1.14,2.78,1.37,3.34.3.74.47,2.03,1.25,2.34,2.2.88,4.73.23,6.52,2.41,1.42,1.74,1.3,5.65,1.18,7.83-.19,3.4-1.18,4.77-4.48,5.59-.81.2-3.1.47-3.62.93-.36.32-.72,1.75-.94,2.3-.28.68-1.06,2.17-1.18,2.75-.06.28-.03.52.05.79.24.8,1.64,2.34,2.13,3.2,1.26,2.21,1.07,4.13-.5,6.1-.94,1.18-4.17,4.49-5.44,5.06-3.31,1.49-4.92-1.02-7.35-2.42-1.14-.66-1.9.17-2.94.61-.58.24-2.91,1.05-3.18,1.33"/>
        </g>
      </g>
    </g>
  </g>
</svg>