<?xml version="1.0" encoding="UTF-8"?>
<svg version="1.1" xmlns="http://www.w3.org/2000/svg" width="1200" height="600">
<path d="M0 0 C20.79 0 41.58 0 63 0 C63 7.92 63 15.84 63 24 C57.375 29.625 57.375 29.625 53 31 C53.63930938 37.06885074 54.80815316 42.83349091 56.28515625 48.75 C56.6159745 50.09807739 56.6159745 50.09807739 56.95347595 51.47338867 C57.65223994 54.31665766 58.35726287 57.15833047 59.0625 60 C59.54012951 61.93869965 60.01734719 63.87750081 60.49414062 65.81640625 C61.65800166 70.54545793 62.82747485 75.2730894 64 80 C67.74614131 67.32118572 71.41175331 54.62307317 74.9296875 41.87890625 C75.41649994 40.11575577 75.41649994 40.11575577 75.91314697 38.31698608 C77.2448036 33.48815316 78.57399756 28.65865056 79.90039062 23.82836914 C80.88644629 20.24024831 81.8765402 16.65326161 82.8671875 13.06640625 C83.16817352 11.96567276 83.46915955 10.86493927 83.77926636 9.73085022 C84.05690826 8.72726974 84.33455017 7.72368927 84.62060547 6.68969727 C84.86374481 5.80500259 85.10688416 4.92030792 85.35739136 4.00880432 C86 2 86 2 87 1 C89.46475895 0.7523009 91.90328895 0.57308847 94.375 0.4375 C95.02210938 0.39431641 95.66921875 0.35113281 96.3359375 0.30664062 C105.21069602 -0.20724705 114.11429521 -0.03579738 123 0 C125.46024862 9.44887611 127.92028949 18.89780628 130.38006496 28.34680557 C131.52223598 32.73432279 132.66447862 37.12182134 133.80688477 41.50927734 C134.90931346 45.74320916 136.01155424 49.97718985 137.11366463 54.21120453 C137.53422411 55.82674655 137.95485136 57.44227094 138.37554741 59.0577774 C138.96465554 61.32004717 139.55352297 63.58237945 140.14233398 65.84472656 C140.31640274 66.51294937 140.4904715 67.18117218 140.66981506 67.86964417 C141.46077255 70.9096508 142.24609329 73.95057186 143 77 C145.77678778 69.11139836 147.97171434 61.09001212 150.12646484 53.0144043 C150.75385066 50.67313012 151.39447868 48.33571366 152.03515625 45.99804688 C152.43571721 44.50282397 152.83548559 43.00738845 153.234375 41.51171875 C153.5232962 40.46947395 153.5232962 40.46947395 153.8180542 39.40617371 C154.80378533 35.64217409 154.971795 33.88717999 154 30 C151.03 28.02 148.06 26.04 145 24 C145 16.08 145 8.16 145 0 C164.8 0 184.6 0 205 0 C205 7.92 205 15.84 205 24 C199.50854492 27.99487305 199.50854492 27.99487305 196.17880249 29.57943726 C188.63794226 35.32157612 187.28541089 47.33294494 184.86328125 56.08203125 C184.16926673 58.46351308 183.4713018 60.8438469 182.76957703 63.22306824 C180.94051141 69.46308219 179.16487331 75.71706831 177.40032959 81.97558594 C175.59110945 88.35693673 173.73210582 94.72366053 171.87695312 101.09179688 C168.89138508 111.36008015 165.93608233 121.63647225 163.0218811 131.92524719 C162.64195259 133.26456299 162.64195259 133.26456299 162.25434875 134.63093567 C161.92514167 135.79478397 161.92514167 135.79478397 161.58928394 136.98214436 C161.09745032 138.66630573 160.55482428 140.33552715 160 142 C147.79 142 135.58 142 123 142 C121.56785156 137.05386719 120.13570313 132.10773438 118.66015625 127.01171875 C117.75332155 123.88084012 116.84645141 120.74997185 115.93945312 117.61914062 C114.49940812 112.64829398 113.05949548 107.67740926 111.62036133 102.70629883 C110.46027314 98.69910999 109.29959948 94.69209116 108.13851738 90.6851902 C107.69534834 89.1554247 107.25239133 87.62559776 106.80964851 86.09570885 C106.19014558 83.9551637 105.56989341 81.814837 104.94946289 79.67456055 C104.59638565 78.45544479 104.24330841 77.23632904 103.87953186 75.98027039 C103.28808375 73.97616415 102.66077626 71.98232878 102 70 C101.73913101 70.85777542 101.47826202 71.71555084 101.20948792 72.59931946 C98.75260045 80.67767135 96.2953314 88.75590706 93.83763218 96.83401203 C92.57407934 100.98717753 91.31067481 105.14038801 90.04760742 109.29370117 C88.82898627 113.30084337 87.60997789 117.30786758 86.39069939 121.3148098 C85.92527369 122.84459411 85.45998824 124.3744211 84.99484444 125.90429115 C84.34401924 128.0447866 83.69269845 130.18513065 83.04125977 132.32543945 C82.67041763 133.54455521 82.2995755 134.76367096 81.91749573 136.01972961 C81.30156007 138.02045262 80.66198711 140.01403868 80 142 C67.79 142 55.58 142 43 142 C40.81458028 134.36066309 38.62917049 126.72132594 36.4453125 119.08154297 C34.83511262 113.44878414 33.22338478 107.81646673 31.60973167 102.1846962 C23.16912327 72.72179865 23.16912327 72.72179865 19.36328125 58.80859375 C18.86044888 56.98054575 18.35760144 55.15250189 17.85473633 53.32446289 C16.97136374 50.10994768 16.10526064 46.89144754 15.2487793 43.66967773 C14.86438795 42.26659475 14.47942237 40.8636689 14.09375 39.4609375 C13.62485352 37.70982666 13.62485352 37.70982666 13.14648438 35.92333984 C10.60539033 29.44398292 6.04168976 27.7760561 0 24 C0 16.08 0 8.16 0 0 Z " fill="#FFFFFF" transform="translate(97,235)"/>
<path d="M0 0 C0 16.5 0 33 0 50 C3.3 48.02 6.6 46.04 10 44 C19.62249606 39.59451988 30.31463441 37.72225676 40.625 41.25 C48.50637173 45.3366372 52.05475927 50.63978111 55.04370117 58.87597656 C56.55476912 64.3096104 56.35757062 69.89613262 56.4140625 75.49609375 C56.44311172 77.27911644 56.44311172 77.27911644 56.4727478 79.09815979 C56.53231089 82.8778679 56.5788363 86.65760684 56.625 90.4375 C56.66320114 93.00717441 56.70225411 95.5768363 56.7421875 98.14648438 C56.83799351 104.43088742 56.92211075 110.71535039 57 117 C60.63 118.32 64.26 119.64 68 121 C68 127.93 68 134.86 68 142 C49.85 142 31.7 142 13 142 C13 135.07 13 128.14 13 121 C18 118 18 118 20 118 C19.9312297 111.78825574 19.84331496 105.57719151 19.73754883 99.3659668 C19.70426872 97.25243664 19.67624647 95.13881694 19.65356445 93.02514648 C19.62007528 89.98903194 19.56776236 86.95374025 19.51171875 83.91796875 C19.50213387 82.4975251 19.50213387 82.4975251 19.49235535 81.04838562 C19.47256119 80.16769913 19.45276703 79.28701263 19.43237305 78.37963867 C19.42126999 77.60464523 19.41016693 76.82965179 19.39872742 76.03117371 C18.88983547 73.43880634 18.12063433 72.5486725 16 71 C10.24173722 70.4336135 7.0954659 71.0883052 2 74 C1.34 74 0.68 74 0 74 C-0.0300521 80.0515036 -0.01469092 86.10054834 0.04272461 92.15185547 C0.05586222 94.21008187 0.05660053 96.26842636 0.04467773 98.32666016 C0.02968493 101.28666789 0.05931255 104.24338694 0.09765625 107.203125 C0.07627342 108.58301605 0.07627342 108.58301605 0.05445862 109.99078369 C0.08369667 111.28166901 0.08369667 111.28166901 0.11352539 112.59863281 C0.115746 113.35364075 0.11796661 114.10864868 0.12025452 114.88653564 C1.1851074 118.05122945 1.1851074 118.05122945 8 121 C8 127.93 8 134.86 8 142 C-10.81 142 -29.62 142 -49 142 C-49 138.7 -49 135.4 -49 132 C-49.76183594 132.47050781 -50.52367187 132.94101562 -51.30859375 133.42578125 C-57.37128089 137.08155889 -63.10548235 140.2796789 -70 142 C-70.70125 142.18304688 -71.4025 142.36609375 -72.125 142.5546875 C-89.12537734 145.18789812 -105.8717082 143.19694104 -120 133 C-129.14366012 124.92812421 -134.23061925 112.88152496 -135.16845703 100.83642578 C-136.00770561 84.0619887 -133.90558494 67.73101339 -123.1875 54.125 C-115.0715774 45.50576437 -103.3853295 40.70343884 -91.63842773 39.82299805 C-60.88917306 39.05541347 -60.88917306 39.05541347 -49 45 C-48.8403202 56.70985205 -49.35483451 68.30637557 -50 80 C-57.26 80 -64.52 80 -72 80 C-72.99 76.7 -73.98 73.4 -75 70 C-76.89510699 69.91839252 -78.79124504 69.86053541 -80.6875 69.8125 C-81.74324219 69.77769531 -82.79898438 69.74289062 -83.88671875 69.70703125 C-87.41494933 70.03904793 -89.18955241 70.87853339 -92 73 C-96.94709216 81.30404755 -97.07847269 90.55463961 -95.50390625 99.96484375 C-94.10540886 105.21908534 -92.36829197 108.52776792 -88 112 C-82.83401296 114.58299352 -75.29719824 113.57931841 -69.87109375 112.2109375 C-66.11711339 110.87278396 -62.72149278 109.43939749 -59.3125 107.36328125 C-57 106 -57 106 -55 106 C-52.36 110.62 -49.72 115.24 -47 120 C-43.04 119.01 -39.08 118.02 -35 117 C-35 86.64 -35 56.28 -35 25 C-38.63 24.34 -42.26 23.68 -46 23 C-47.485 22.505 -47.485 22.505 -49 22 C-49 15.4 -49 8.8 -49 2 C-38.86074476 0.87341608 -38.86074476 0.87341608 -33.92578125 0.68359375 C-32.30446289 0.62075195 -32.30446289 0.62075195 -30.65039062 0.55664062 C-28.99813477 0.49766602 -28.99813477 0.49766602 -27.3125 0.4375 C-26.23033203 0.39431641 -25.14816406 0.35113281 -24.03320312 0.30664062 C-16.0057627 0.00686069 -8.04567995 0 0 0 Z " fill="#FFFFFF" transform="translate(1074,236)"/>
<path d="M0 0 C11.1187995 -0.09307746 22.23750484 -0.16395544 33.35661602 -0.20724869 C38.52084397 -0.22803746 43.68480346 -0.25619427 48.84887695 -0.30175781 C53.84153153 -0.34552836 58.83392946 -0.36920244 63.82676125 -0.37950897 C65.72236986 -0.38684472 67.61796597 -0.4011682 69.51346397 -0.42292023 C84.25722641 -0.58523624 98.58033966 0.15122816 109.93359375 10.81640625 C116.55338526 17.84907457 118.5602354 24.76716519 118.4375 34.3125 C118.42920166 35.14628174 118.42090332 35.98006348 118.41235352 36.83911133 C118.14486603 46.63524542 115.71314851 54.13990081 108.8828125 61.33984375 C106.11926874 63.77657839 103.30470561 65.38136868 100 67 C102.17314721 68.65670517 104.3667258 70.25140666 106.62109375 71.796875 C114.33111667 77.14363153 119.49398357 81.67024188 122 91 C123.37019232 103.77941749 122.44121014 116.15932343 114.8125 126.875 C106.8560672 136.19683759 95.9523377 140.35747129 84 142 C81.19361203 142.08630137 78.41343563 142.12672969 75.60791016 142.11352539 C74.37764603 142.11374443 74.37764603 142.11374443 73.12252808 142.1139679 C70.42801208 142.11327462 67.73356633 142.10550972 65.0390625 142.09765625 C63.16433754 142.09578999 61.2896121 142.09436707 59.41488647 142.09336853 C54.49284507 142.08955973 49.57083341 142.07974346 44.64880371 142.06866455 C39.62134198 142.05841519 34.59387543 142.05386337 29.56640625 142.04882812 C19.71092236 142.03811968 9.85546831 142.02053617 0 142 C0 134.08 0 126.16 0 118 C10 113 10 113 13 113 C13 85.94 13 58.88 13 31 C9.3955695 29.55682387 9.3955695 29.55682387 5.77929688 28.14379883 C3.38961048 26.98491418 1.78888272 25.97895151 0 24 C-0.99833264 19.86285475 -0.75681355 15.91257675 -0.5 11.6875 C-0.46390625 10.56537109 -0.4278125 9.44324219 -0.390625 8.28710938 C-0.29646821 5.52125379 -0.16512661 2.76237759 0 0 Z M54 31 C54 38.92 54 46.84 54 55 C65.61703896 55.07534505 65.61703896 55.07534505 75 49 C76.85984289 45.28031421 76.5731469 41.05023808 76 37 C73.34864624 33.39121294 71.35456445 31.74088076 67 31 C64.75092848 30.93209325 62.49998395 30.91500016 60.25 30.9375 C57.15625 30.9684375 57.15625 30.9684375 54 31 Z M54 82 C54 91.57 54 101.14 54 111 C66.81331801 111.34329292 66.81331801 111.34329292 77.5625 106 C79.77569168 101.38116518 79.61413825 97.02683528 79 92 C77.22840073 87.37415745 74.31425067 85.32305805 70 83 C64.52163342 81.75961511 59.75254294 82 54 82 Z " fill="#FFFFFF" transform="translate(604,235)"/>
<path d="M0 0 C0 26.07 0 52.14 0 79 C2.64 79 5.28 79 8 79 C8.24492188 78.46890625 8.48984375 77.9378125 8.7421875 77.390625 C10.33580943 74.3617535 12.21259634 71.58776027 14.125 68.75 C14.84945312 67.67234375 15.57390625 66.5946875 16.3203125 65.484375 C16.87460937 64.66453125 17.42890625 63.8446875 18 63 C17.030625 62.855625 16.06125 62.71125 15.0625 62.5625 C12 62 12 62 11 61 C10.90139869 59.59651265 10.86921063 58.18819523 10.8671875 56.78125 C10.86589844 55.93175781 10.86460937 55.08226562 10.86328125 54.20703125 C10.86714844 53.31371094 10.87101563 52.42039062 10.875 51.5 C10.86919922 50.16001953 10.86919922 50.16001953 10.86328125 48.79296875 C10.86457031 47.94347656 10.86585938 47.09398437 10.8671875 46.21875 C10.86831543 45.43435547 10.86944336 44.64996094 10.87060547 43.84179688 C11 42 11 42 12 41 C13.65738443 40.90653085 15.31874644 40.88255023 16.97875977 40.88647461 C18.03978409 40.88655014 19.10080841 40.88662567 20.19398499 40.88670349 C21.348134 40.89186478 22.50228302 40.89702606 23.69140625 40.90234375 C24.86638168 40.9037587 26.04135712 40.90517365 27.25193787 40.90663147 C31.02215064 40.91225008 34.79230504 40.92480574 38.5625 40.9375 C41.11132727 40.9425126 43.66015547 40.94707592 46.20898438 40.95117188 C52.4726789 40.96222556 58.73632954 40.97950266 65 41 C65 47.6 65 54.2 65 61 C61.84917604 62.05027465 58.69672565 63.0963101 55.53125 64.1015625 C50.77751419 66.18786616 48.33742593 70.19650211 45.5 74.375 C44.95085937 75.13039063 44.40171875 75.88578125 43.8359375 76.6640625 C40.81966723 80.62181742 40.81966723 80.62181742 40.18188477 85.35180664 C41.77091437 90.4954068 44.16637581 95.28639705 46.50756836 100.12036133 C47.12525029 101.41037439 47.72926196 102.70702648 48.3190918 104.01000977 C52.32195584 113.17727001 52.32195584 113.17727001 60.22265625 118.80859375 C62.64762738 119.53876244 62.64762738 119.53876244 65 120 C66.98 120.495 66.98 120.495 69 121 C69 127.93 69 134.86 69 142 C54.81 142 40.62 142 26 142 C21.12276702 132.24553404 16.35060289 122.60074859 12 112.625 C11.51144531 111.5215625 11.02289062 110.418125 10.51953125 109.28125 C7 101.2563244 7 101.2563244 7 99 C4.69 99 2.38 99 0 99 C-0.04822023 101.90225529 -0.04026422 104.78623923 0 107.6875 C-0.01933594 108.50412109 -0.03867187 109.32074219 -0.05859375 110.16210938 C-0.07026372 112.93797189 -0.07026372 112.93797189 1 117 C3.64 118.65 6.28 120.3 9 122 C9 128.6 9 135.2 9 142 C-10.14 142 -29.28 142 -49 142 C-49 135.07 -49 128.14 -49 121 C-37.25 117 -37.25 117 -35 117 C-35 86.64 -35 56.28 -35 25 C-38.63 24.34 -42.26 23.68 -46 23 C-46.99 22.67 -47.98 22.34 -49 22 C-49 15.4 -49 8.8 -49 2 C-38.86074476 0.87341608 -38.86074476 0.87341608 -33.92578125 0.68359375 C-32.30446289 0.62075195 -32.30446289 0.62075195 -30.65039062 0.55664062 C-29.54888672 0.51732422 -28.44738281 0.47800781 -27.3125 0.4375 C-26.23033203 0.39431641 -25.14816406 0.35113281 -24.03320312 0.30664062 C-16.0057627 0.00686069 -8.04567995 0 0 0 Z " fill="#FFFFFF" transform="translate(530,236)"/>
<path d="M0 0 C8.5587567 8.79007445 9.60870943 19.18848451 9.7265625 30.87109375 C9.74592865 32.05977554 9.7652948 33.24845734 9.7852478 34.47315979 C9.84481089 38.2528679 9.8913363 42.03260684 9.9375 45.8125 C9.97570114 48.38217441 10.01475411 50.9518363 10.0546875 53.52148438 C10.15049351 59.80588742 10.23461075 66.09035039 10.3125 72.375 C13.9425 73.695 17.5725 75.015 21.3125 76.375 C21.3125 83.305 21.3125 90.235 21.3125 97.375 C3.1625 97.375 -14.9875 97.375 -33.6875 97.375 C-33.6875 90.445 -33.6875 83.515 -33.6875 76.375 C-28.6875 73.375 -28.6875 73.375 -26.6875 73.375 C-26.7562703 67.16325574 -26.84418504 60.95219151 -26.94995117 54.7409668 C-26.98323128 52.62743664 -27.01125353 50.51381694 -27.03393555 48.40014648 C-27.06742472 45.36403194 -27.11973764 42.32874025 -27.17578125 39.29296875 C-27.18217117 38.34600632 -27.1885611 37.39904388 -27.19514465 36.42338562 C-27.21493881 35.54269913 -27.23473297 34.66201263 -27.25512695 33.75463867 C-27.26623001 32.97964523 -27.27733307 32.20465179 -27.28877258 31.40617371 C-27.79768558 28.81369909 -28.5693372 27.92670266 -30.6875 26.375 C-35.66259769 25.80408715 -37.72475016 25.83235918 -42.125 28.3125 C-43.9625504 29.78103502 -43.9625504 29.78103502 -45.6875 31.375 C-45.77621273 34.40477804 -45.8026935 37.41167022 -45.78515625 40.44140625 C-45.78303383 41.80434059 -45.78303383 41.80434059 -45.78086853 43.19480896 C-45.77525193 46.10907221 -45.76269665 49.02325981 -45.75 51.9375 C-45.74498714 53.90820202 -45.74042386 55.87890524 -45.73632812 57.84960938 C-45.72527711 62.69143559 -45.70800138 67.53320495 -45.6875 72.375 C-43.3775 73.695 -41.0675 75.015 -38.6875 76.375 C-38.6875 83.305 -38.6875 90.235 -38.6875 97.375 C-57.1675 97.375 -75.6475 97.375 -94.6875 97.375 C-94.6875 90.445 -94.6875 83.515 -94.6875 76.375 C-83.9375 72.375 -83.9375 72.375 -81.6875 72.375 C-81.6875 55.875 -81.6875 39.375 -81.6875 22.375 C-85.6475 21.385 -89.6075 20.395 -93.6875 19.375 C-94.6875 18.375 -94.6875 18.375 -94.80102539 16.42553711 C-94.79317017 15.1765564 -94.79317017 15.1765564 -94.78515625 13.90234375 C-94.78193359 13.00322266 -94.77871094 12.10410156 -94.77539062 11.17773438 C-94.76701172 10.23220703 -94.75863281 9.28667969 -94.75 8.3125 C-94.74548828 7.36310547 -94.74097656 6.41371094 -94.73632812 5.43554688 C-94.7245011 3.08196935 -94.70802025 0.72851523 -94.6875 -1.625 C-79.34292194 -2.59486046 -64.06001716 -2.73342685 -48.6875 -2.625 C-48.6875 0.675 -48.6875 3.975 -48.6875 7.375 C-47.32818359 6.45267578 -47.32818359 6.45267578 -45.94140625 5.51171875 C-31.57413883 -4.0961317 -16.24583029 -9.82306017 0 0 Z " fill="#FFFFFF" transform="translate(921.6875,280.625)"/>
<path d="M0 0 C8.85801726 8.66117244 13.26842791 20.41769932 13.8125 32.75 C13.8640625 33.678125 13.915625 34.60625 13.96875 35.5625 C14.43551455 51.43249456 11.33090137 66.15770864 1.0625 78.625 C-8.92121546 89.04197104 -21.67590983 92.82419515 -35.77050781 93.17138672 C-50.34111026 93.24856647 -64.30598747 91.74163351 -75.5234375 81.57421875 C-87.87318487 68.03588067 -87.75962752 50.76332008 -87.32373047 33.53320312 C-86.68259758 20.43478927 -80.84141866 8.56004465 -71.1875 -0.25 C-50.84989993 -15.27358198 -20.22854742 -14.27897465 0 0 Z M-45.1875 19.75 C-49.34834724 26.83885085 -49.39720494 32.97120963 -49.4375 41 C-49.458125 42.01191406 -49.47875 43.02382813 -49.5 44.06640625 C-49.53432016 50.68161639 -49.36260158 57.20185019 -44.70800781 62.40332031 C-41.7404149 65.03165083 -39.1205674 65.03478486 -35.21875 64.95703125 C-32.12498455 64.64170516 -30.51349125 63.81016368 -28.1875 61.75 C-22.53344579 51.24961362 -22.85122801 37.24788122 -25.484375 25.8125 C-26.74750857 22.1073082 -28.68760173 19.49994913 -32.1875 17.75 C-34.26314676 17.55241769 -34.26314676 17.55241769 -36.5625 17.5625 C-37.33335937 17.54832031 -38.10421875 17.53414063 -38.8984375 17.51953125 C-41.47010983 17.77845389 -43.01838087 18.35523307 -45.1875 19.75 Z " fill="#FFFFFF" transform="translate(385.1875,286.25)"/>
<path d="M0 0 C7.30173228 6.79321878 12.60222308 15.30864558 13.12939453 25.50195312 C13.13108643 26.87770508 13.13108643 26.87770508 13.1328125 28.28125 C13.13410156 29.28800781 13.13539063 30.29476562 13.13671875 31.33203125 C13.13285156 32.37746094 13.12898437 33.42289062 13.125 34.5 C13.12886719 35.54542969 13.13273438 36.59085937 13.13671875 37.66796875 C13.13542969 38.67472656 13.13414062 39.68148437 13.1328125 40.71875 C13.13168457 41.63591797 13.13055664 42.55308594 13.12939453 43.49804688 C13.00978544 45.81079015 12.65210743 47.78529551 12 50 C6.03681244 51.30755782 0.10894288 51.12597009 -5.9609375 51.09765625 C-7.10664215 51.0962413 -8.2523468 51.09482635 -9.43276978 51.09336853 C-13.08020678 51.0877858 -16.72758165 51.07523641 -20.375 51.0625 C-22.85286369 51.05748277 -25.33072835 51.05292025 -27.80859375 51.04882812 C-33.87241691 51.03782201 -39.93620402 51.02110103 -46 51 C-45.39359014 52.28581524 -44.77864017 53.56760493 -44.16015625 54.84765625 C-43.64787476 55.91898804 -43.64787476 55.91898804 -43.12524414 57.01196289 C-40.95920135 60.83884213 -38.0782657 62.6405781 -34 64 C-21.93368384 65.62431179 -9.27835812 60.88658396 2 57 C3.54044891 59.90670962 5.05377922 62.82671338 6.5625 65.75 C7.21895508 66.9875 7.21895508 66.9875 7.88867188 68.25 C8.29794922 69.04921875 8.70722656 69.8484375 9.12890625 70.671875 C9.51119385 71.4050293 9.89348145 72.13818359 10.28735352 72.89355469 C11.13469588 75.39813499 10.98019907 76.5682084 10 79 C-5.34916623 91.3488148 -24.94681201 94.40907821 -44 93 C-55.41216125 91.40155396 -66.19791678 86.6410169 -74 78 C-83.8844217 64.48456624 -85.94632298 48.04175917 -83.68359375 31.71728516 C-81.26389731 18.68792457 -76.71838845 7.31599104 -66 -1 C-46.60215456 -12.87438202 -18.34461013 -15.59986733 0 0 Z M-43.265625 21.5859375 C-43.59046875 22.17632812 -43.9153125 22.76671875 -44.25 23.375 C-44.75273438 24.25285156 -44.75273438 24.25285156 -45.265625 25.1484375 C-46.24578944 27.28772297 -46.24578944 27.28772297 -46 31 C-38.41 31 -30.82 31 -23 31 C-23.32917961 23.52174919 -23.32917961 23.52174919 -26 20 C-31.22404993 16.51730005 -39.02026885 16.26613936 -43.265625 21.5859375 Z " fill="#FFFFFF" transform="translate(814,286)"/>
<path d="M0 0 C0.13973725 14.70895758 -0.23682959 29.30896955 -1 44 C-7.93 44 -14.86 44 -22 44 C-24.25 35 -24.25 35 -24.625 31 C-24.69976562 30.236875 -24.77453125 29.47375 -24.8515625 28.6875 C-24.90054688 28.130625 -24.94953125 27.57375 -25 27 C-26.27445454 27.42683632 -27.54445882 27.86697202 -28.8125 28.3125 C-29.87404297 28.67794922 -29.87404297 28.67794922 -30.95703125 29.05078125 C-33.23722742 30.1102223 -34.40345351 31.06362572 -36 33 C-36.46792966 34.947838 -36.46792966 34.947838 -36.43237305 37.10424805 C-36.45216721 37.92487228 -36.47196136 38.74549652 -36.49235535 39.59098816 C-36.50194023 40.9129998 -36.50194023 40.9129998 -36.51171875 42.26171875 C-36.52966995 43.16751175 -36.54762115 44.07330475 -36.56611633 45.00654602 C-36.62030659 47.90014996 -36.65414286 50.79358815 -36.6875 53.6875 C-36.72066539 55.64911165 -36.75515432 57.61070141 -36.79101562 59.57226562 C-36.87603806 64.38139097 -36.9428076 69.19046641 -37 74 C-35.85660156 74.27714844 -34.71320313 74.55429687 -33.53515625 74.83984375 C-32.04422535 75.20554378 -30.55334239 75.57143929 -29.0625 75.9375 C-28.30775391 76.11990234 -27.55300781 76.30230469 -26.77539062 76.49023438 C-21.11328125 77.88671875 -21.11328125 77.88671875 -20 79 C-20 85.6 -20 92.2 -20 99 C-41.78 99 -63.56 99 -86 99 C-86 92.07 -86 85.14 -86 78 C-74.25 74 -74.25 74 -72 74 C-72 57.5 -72 41 -72 24 C-76.29 23.01 -80.58 22.02 -85 21 C-86 20 -86 20 -86.11352539 18.05053711 C-86.10567017 16.8015564 -86.10567017 16.8015564 -86.09765625 15.52734375 C-86.09443359 14.62822266 -86.09121094 13.72910156 -86.08789062 12.80273438 C-86.07951172 11.85720703 -86.07113281 10.91167969 -86.0625 9.9375 C-86.05798828 8.98810547 -86.05347656 8.03871094 -86.04882812 7.06054688 C-86.0370011 4.70696935 -86.02052025 2.35351523 -86 0 C-70.65673879 -0.96977723 -55.37118107 -1.11787716 -40 -1 C-39.34 1.97 -38.68 4.94 -38 8 C-37.030625 6.9275 -36.06125 5.855 -35.0625 4.75 C-25.07410994 -5.05931534 -12.49746269 -5.16050759 0 0 Z " fill="#FFFFFF" transform="translate(486,279)"/>
</svg>
