<?xml version="1.0" encoding="UTF-8"?>
<svg id="Layer_1" data-name="Layer 1" xmlns="http://www.w3.org/2000/svg" xmlns:xlink="http://www.w3.org/1999/xlink" viewBox="0 0 450 150">
  <defs>
    <style>
      .cls-1 {
        letter-spacing: -.03em;
      }

      .cls-2 {
        fill: none;
      }

      .cls-3 {
        letter-spacing: -.05em;
      }

      .cls-4 {
        clip-path: url(#clippath-1);
      }

      .cls-5 {
        letter-spacing: -.02em;
      }

      .cls-6 {
        clip-path: url(#clippath-3);
      }

      .cls-7 {
        letter-spacing: -.03em;
      }

      .cls-8 {
        font-family: Sora-Bold, Sora;
        font-size: 59.12px;
        font-weight: 700;
      }

      .cls-8, .cls-9 {
        fill: #1f4e79;
      }

      .cls-10 {
        clip-path: url(#clippath-2);
      }

      .cls-11 {
        clip-path: url(#clippath);
      }
    </style>
    <clipPath id="clippath">
      <rect class="cls-2" y="18.54" width="90.43" height="90.43"/>
    </clipPath>
    <clipPath id="clippath-1">
      <rect class="cls-2" y="18.54" width="90.43" height="90.43"/>
    </clipPath>
    <clipPath id="clippath-2">
      <rect class="cls-2" x=".41" y="18.95" width="89.62" height="89.62"/>
    </clipPath>
    <clipPath id="clippath-3">
      <rect class="cls-2" x=".41" y="18.95" width="89.62" height="89.62"/>
    </clipPath>
  </defs>
  <text class="cls-8" transform="translate(89.48 89.92)"><tspan class="cls-3" x="0" y="0">W</tspan><tspan class="cls-1" x="60.36" y="0">ork</tspan><tspan class="cls-7" x="158.85" y="0">B</tspan><tspan class="cls-5" x="197.98" y="0">ench</tspan></text>
  <g class="cls-11">
    <g class="cls-4">
      <g class="cls-10">
        <g class="cls-6">
          <path class="cls-9" d="M53.56,92.58c-.47.49-.83,3.99-1.19,4.98-.48,1.33-1.42,2.35-2.76,2.84-1.85.68-7.37.66-9.14-.18-2.7-1.29-2.55-4.23-3.18-6.71-.36-1.44-.65-.93-1.61-1.62-1.66-1.19-.41-3.72,1.5-3.16,3.72,1.07,3.22,4.35,4.14,7.24.34,1.08.72,1.23,1.84,1.31,1.05.08,2.1.04,3.15,0,1.3-.06,2.47.25,2.91-1.29.63-2.21.23-4.52,2.21-6.19.93-.78,1.84-.87,2.89-1.31,2.42-1.02,4.27-2.52,6.94-.99,1.01.58,1.93,1.57,2.95,2.13.89.49,1.2.4,1.97-.22,1.04-.84,2.48-2.29,3.33-3.32.44-.53,1-1.07.76-1.81-.29-.93-1.74-2.44-2.28-3.41-.56-1-.82-1.88-.72-3.05.09-1.1,1.72-4.85,2.26-6.05,1.36-3.03,4.1-2.56,6.75-3.4.73-.23,1.01-.32,1.13-1.15.19-1.3.18-3.48.1-4.8-.07-1.09-.07-1.69-1.19-2.05-2.63-.84-5.34-.24-6.76-3.3-.59-1.28-1.83-4.18-2.14-5.47-.82-3.41,1.72-4.41,2.79-6.89.42-.98-.18-1.51-.79-2.19-.72-.81-2.61-2.85-3.43-3.4-.76-.51-1.15-.28-1.84.14-1.32.8-2.61,2.26-4.13,2.61-2.03.45-3.57-.64-5.35-1.4-1.63-.7-3.03-.87-4.09-2.47-1.07-1.6-.87-3.72-1.44-5.47-.17-.51-.48-.8-1-.92-1.14-.28-4.68-.28-5.8.02-.71.19-.83.51-1.02,1.17-.71,2.53-.26,5.28-3.01,6.7-1.1.57-2.55,1.03-3.72,1.53-.71.3-1.24.69-2.04.85-3.06.63-4.15-1.52-6.42-2.78-.77-.43-1.16-.3-1.81.23-.93.75-3.1,2.9-3.76,3.85-.53.77-.51,1-.07,1.82,1.09,2.04,2.99,3.19,2.77,5.87-.09,1.12-1.71,4.96-2.25,6.15-1.31,2.86-3.69,2.59-6.3,3.24-.87.21-1.37.24-1.57,1.23-.28,1.35-.22,3.73-.1,5.13.1,1.17.23,1.47,1.35,1.8,2.38.7,5.18.44,6.5,3.04.58,2.39,2.62,5.03,2.37,7.51-.19,1.91-2.12,3.4-2.85,5.03-.43.97-.14,1.23.49,1.97.93,1.09,2.3,2.51,3.41,3.42,1.29,1.05,1.76.41,2.84-.48,1.24-1.02,2.25-2.31,3.37-3.46,3.9-4,7.76-8.04,11.65-12.07,1.57-1.23,2.46-.59,4.15-.48,4.72.3,8.06-3.41,8.36-7.92,0-.1.08-.57-.13-.48-1.09,1.02-2.17,2.5-3.33,3.41-4.01,3.13-11.01-3.67-7.43-8.22.81-1.03,2.18-1.96,2.97-2.98.07-.09.17-.11.13-.26-2.94-.04-5.54,1.45-6.98,4-.95,1.69-1.26,3.39-1.06,5.31.16,1.49.63,2.26-.41,3.64l-7.08,7.44c-2.38,2-4.1-2.04-4.87-3.79-7.69-17.5,9.97-36.24,27.76-28.46,11.91,5.21,16.08,20.45,9.38,31.41l1.83,6.74c.11,1.13-.55,1.94-1.64,2.13l-7.5-1.82c-4.09,2.25-8.7,3.34-13.37,2.51-.62-.11-1.34-.19-1.78-.67-.88-.96-.41-2.73.9-2.96.85-.15,2.27.28,3.21.33,2.79.15,5.62-.47,8.13-1.68.88-.42,1.65-1.09,2.65-1.2l5.2,1.22c-.33-1.32-.83-2.66-1.13-3.99-.41-1.81.26-2.01,1-3.45,4.49-8.71,2.03-19.16-6.44-24.28-10.61-6.41-23.94.29-26.13,12.19-.65,3.53-.22,8.29,1.65,11.42.05.08.08.18.2.15,1.19-1.22,2.43-2.42,3.59-3.67.23-.25,1.24-1.3,1.31-1.49.12-.34-.19-1.65-.21-2.14-.44-8.14,6.8-14.36,14.79-12.25,1.61.42,3.16,1.07,2.47,3.08-1.81,2.13-3.9,4.04-5.8,6.11-.21.29.01.64.16.9.29.5,1.62,1.94,2.23,1.76.15-.04,1.89-1.85,2.17-2.13.97-.99,2.39-2.82,3.42-3.58.67-.5,1.57-.6,2.26-.09,1.34.99,1.67,5.01,1.58,6.56-.37,6.25-5.69,11.36-12.03,10.98-.61-.04-1.84-.43-2.32-.13-4.65,4.65-9.01,9.61-13.65,14.26-3.57,3.58-5.64,3.94-9.41.31-1.41-1.36-3.98-3.79-4.22-5.76-.35-2.94,1.74-4.14,2.85-6.38.49-.99-.35-2.06-.72-3-.32-.81-.67-2.1-1.05-2.8-.24-.45-.55-.51-1.02-.64-2.3-.63-5.23-.47-6.53-2.92-.94-1.76-.9-5.51-.72-7.51.25-2.72,1.11-4.41,3.86-5.15.86-.23,3.78-.57,4.24-1.05l2.11-5.02c.06-.28.03-.52-.05-.79-.27-.89-1.87-2.56-2.4-3.55-.81-1.52-.84-3.24,0-4.76.7-1.26,4.62-5.29,5.88-5.94,3.29-1.69,5,.58,7.47,2.17.27.17.48.38.81.42.66.07,1.71-.62,2.35-.89.8-.34,2.26-.79,2.92-1.19.29-.18.38-.33.49-.65.89-2.64.19-5.9,3.45-7.23,1.75-.71,6.73-.7,8.58-.22,3.72.96,3.18,4.45,4.03,7.26.34,1.12,1.25,1.07,2.2,1.48,1.05.45,2.1.92,3.13,1.42l.79-.05c2.52-1.62,4.52-4.14,7.8-2.59,1.43.67,4.08,3.53,5.17,4.81,1.62,1.9,1.99,3.93.74,6.16-.45.79-2.37,3.07-2.39,3.73-.02.36,1.14,2.78,1.37,3.34.3.74.47,2.03,1.25,2.34,2.2.88,4.73.23,6.52,2.41,1.42,1.74,1.3,5.65,1.18,7.83-.19,3.4-1.18,4.77-4.48,5.59-.81.2-3.1.47-3.62.93-.36.32-.72,1.75-.94,2.3-.28.68-1.06,2.17-1.18,2.75-.06.28-.03.52.05.79.24.8,1.64,2.34,2.13,3.2,1.26,2.21,1.07,4.13-.5,6.1-.94,1.18-4.17,4.49-5.44,5.06-3.31,1.49-4.92-1.02-7.35-2.42-1.14-.66-1.9.17-2.94.61-.58.24-2.91,1.05-3.18,1.33"/>
        </g>
      </g>
    </g>
  </g>
</svg>